<?xml version="1.0" standalone="no"?>
<!DOCTYPE svg PUBLIC "-//W3C//DTD SVG 20010904//EN"
 "http://www.w3.org/TR/2001/REC-SVG-20010904/DTD/svg10.dtd">
<svg version="1.0" xmlns="http://www.w3.org/2000/svg"
 width="1036.000000pt" height="1036.000000pt" viewBox="0 0 1036.000000 1036.000000"
 preserveAspectRatio="xMidYMid meet">

<g transform="translate(0.000000,1036.000000) scale(0.100000,-0.100000)"
fill="#000000" stroke="none">
<path d="M7740 8589 c-30 -4 -74 -14 -98 -23 -43 -15 -67 -19 -207 -31 -38 -3
-160 -19 -270 -35 -110 -15 -214 -28 -231 -28 -33 -1 -325 -41 -334 -47 -3 -2
-48 -6 -100 -10 -52 -3 -171 -17 -264 -31 -93 -13 -219 -29 -280 -34 -94 -8
-114 -13 -128 -31 -23 -28 -23 -46 1 -59 13 -7 312 -10 900 -10 l881 0 0 -120
0 -120 -432 0 c-238 1 -725 5 -1083 10 -357 5 -1089 10 -1625 10 -536 0 -1143
3 -1347 6 l-373 7 0 104 0 103 893 2 892 3 3 27 c5 42 -28 56 -153 67 -61 6
-186 21 -280 35 -93 14 -206 27 -250 31 -44 3 -91 7 -105 9 -75 12 -348 48
-500 66 -96 11 -198 25 -227 31 -29 6 -87 12 -130 15 -102 6 -136 11 -208 36
-49 17 -76 19 -148 15 -49 -3 -95 -11 -103 -18 -8 -6 -14 -9 -14 -6 0 4 -17 0
-37 -7 -21 -7 -83 -16 -138 -20 -55 -4 -143 -13 -195 -22 -124 -20 -231 -33
-305 -39 -70 -5 -447 -54 -715 -92 -102 -14 -235 -29 -297 -34 -134 -9 -155
-18 -151 -62 l3 -32 885 -5 885 -5 5 -215 c5 -206 6 -217 30 -259 49 -86 -14
-80 930 -86 458 -3 835 -7 838 -9 2 -3 6 -67 9 -143 7 -161 1 -179 -55 -188
-20 -4 -72 -20 -114 -37 -43 -16 -79 -29 -80 -27 -2 1 -14 -4 -28 -11 -14 -8
-27 -15 -30 -15 -15 -2 -166 -83 -235 -125 -92 -57 -236 -180 -304 -259 -25
-30 -56 -64 -67 -75 -26 -26 -114 -159 -114 -173 0 -6 -7 -17 -17 -24 -9 -8
-27 -37 -39 -66 -13 -29 -31 -69 -40 -90 -10 -21 -18 -40 -18 -43 -1 -3 -8
-24 -17 -45 -39 -94 -49 -121 -53 -146 -2 -15 -16 -71 -31 -124 -32 -119 -39
-189 -19 -206 14 -12 310 -17 321 -5 3 3 9 27 14 53 11 73 16 91 43 184 44
148 130 329 184 387 6 7 17 23 23 34 18 34 131 148 204 206 39 31 72 60 73 64
2 4 10 8 17 8 8 0 20 6 27 13 16 15 222 117 237 117 6 0 44 11 85 25 l75 25
403 0 404 0 12 -42 c13 -51 -12 -24 391 -417 176 -173 321 -318 321 -322 0 -5
-14 -9 -32 -9 -18 0 -104 -13 -193 -30 -88 -16 -214 -39 -280 -51 -66 -12
-145 -27 -175 -35 -30 -7 -68 -13 -85 -13 -16 1 -87 -11 -156 -25 -70 -14
-151 -28 -180 -31 -30 -4 -61 -9 -69 -11 -15 -6 -94 -20 -295 -54 -60 -10
-159 -28 -220 -39 -60 -12 -128 -24 -150 -26 -33 -3 -193 -31 -425 -75 -25 -4
-101 -18 -170 -30 -69 -11 -201 -35 -295 -52 -93 -18 -183 -33 -200 -34 -138
-12 -250 -49 -289 -95 -31 -37 -63 -111 -69 -161 -4 -25 -20 -75 -36 -110 -16
-35 -47 -103 -69 -153 -22 -49 -54 -120 -71 -158 -17 -37 -31 -69 -31 -72 0
-3 -16 -40 -36 -83 -82 -177 -144 -318 -144 -330 0 -6 -13 -37 -30 -69 -37
-73 -90 -190 -90 -199 0 -4 -16 -38 -35 -75 -19 -38 -33 -69 -31 -69 3 0 -18
-47 -45 -105 -27 -57 -49 -109 -49 -115 0 -17 4 -19 -183 54 -80 31 -106 32
-139 7 -17 -14 -25 -31 -26 -60 -3 -36 1 -42 35 -65 21 -14 41 -26 46 -26 4 0
28 -9 53 -20 l44 -21 -43 -37 c-23 -20 -62 -53 -86 -72 -24 -19 -59 -48 -77
-64 l-34 -28 0 -97 c0 -53 9 -175 20 -271 11 -96 20 -179 20 -186 0 -6 10 -22
23 -36 20 -22 29 -24 62 -19 24 4 45 15 57 32 19 25 19 28 -6 260 -14 128 -22
236 -18 240 4 3 52 41 107 85 55 43 107 86 117 94 44 39 42 39 124 8 112 -43
176 -68 199 -78 11 -5 27 -10 35 -13 16 -4 32 -74 50 -222 6 -44 11 -85 13
-91 1 -6 -76 -87 -171 -180 -149 -146 -172 -173 -172 -199 0 -63 61 -101 114
-73 13 7 106 93 206 190 146 144 182 184 186 210 3 18 -4 90 -15 160 -12 70
-21 130 -21 133 0 6 22 -2 80 -28 54 -24 139 -33 168 -18 28 15 39 74 19 104
-13 21 -171 91 -229 102 -11 3 -31 11 -43 19 l-23 15 28 58 c16 32 45 99 65
148 20 50 50 119 67 155 17 36 31 72 33 80 2 8 19 50 39 92 20 42 36 83 36 90
0 7 7 22 15 32 8 11 15 28 15 38 0 10 5 18 10 18 6 0 10 7 10 16 0 8 11 39 24
67 13 29 30 67 37 84 8 18 16 33 19 33 6 0 39 -60 111 -200 27 -52 53 -100 59
-107 5 -7 10 -15 10 -19 0 -3 9 -19 21 -35 11 -16 18 -29 14 -29 -5 0 19 -49
44 -90 6 -8 45 -82 89 -165 151 -284 165 -310 173 -313 5 -2 9 -10 9 -19 0 -8
16 -41 35 -74 19 -32 32 -59 29 -59 -4 0 2 -12 12 -27 19 -30 68 -119 121
-223 34 -67 131 -250 212 -400 l46 -85 255 0 255 0 3 30 c4 31 -4 48 -845
1734 -193 388 -350 707 -348 709 5 6 195 52 203 50 4 -1 68 12 142 29 74 17
155 36 180 41 25 6 70 17 100 25 59 16 141 32 152 29 3 -1 60 12 125 28 65 16
136 32 158 35 22 4 65 13 95 21 55 16 123 31 170 39 51 9 120 24 196 44 44 10
97 22 119 25 22 3 83 16 135 30 52 13 113 27 135 30 37 6 115 23 440 96 444
100 508 114 628 135 43 8 85 19 95 24 17 9 51 45 66 69 16 26 18 108 3 144
-14 33 -162 212 -272 328 -68 72 -130 142 -298 338 -76 89 -143 162 -148 162
-5 0 -9 5 -9 10 0 6 119 10 338 10 294 -1 343 -3 387 -18 28 -10 55 -20 61
-24 6 -4 24 -9 40 -12 44 -8 181 -83 261 -143 136 -102 251 -241 334 -404 28
-54 52 -104 53 -111 2 -7 7 -24 13 -38 35 -88 93 -300 93 -342 0 -44 14 -48
176 -48 84 0 159 3 168 6 31 12 14 134 -37 283 -9 25 -14 48 -11 52 2 4 0 10
-6 14 -5 3 -10 14 -10 23 0 69 -187 449 -269 548 -14 17 -39 48 -56 69 -73 91
-237 245 -261 245 -5 0 -14 8 -21 18 -6 10 -36 31 -67 47 -31 16 -61 34 -67
42 -7 7 -17 13 -23 13 -6 0 -38 14 -71 31 -33 17 -70 32 -81 35 -12 2 -41 13
-65 24 -24 11 -53 20 -64 20 -11 0 -28 7 -37 14 -16 12 -18 33 -18 175 l0 162
843 -3 842 -3 50 25 c40 20 55 35 75 75 23 48 24 60 28 268 l4 217 879 0 c878
0 878 0 889 21 9 16 8 26 -4 43 -15 24 -58 36 -129 36 -21 0 -131 13 -245 29
-114 16 -259 34 -322 40 -63 6 -172 20 -243 31 -70 11 -142 20 -160 21 -17 1
-95 10 -172 20 -77 10 -162 21 -189 24 -27 3 -52 7 -56 10 -4 2 -45 7 -91 10
-115 7 -154 13 -224 35 -76 23 -125 28 -195 19z m-2504 -1545 c30 -32 30 -49
-1 -79 -29 -30 -68 -32 -95 -5 -26 26 -25 51 1 84 26 34 64 34 95 0z m772
-920 c32 -22 26 -70 -11 -98 -26 -19 -30 -19 -55 -5 -21 11 -28 23 -30 54 -5
60 45 85 96 49z m-3224 -574 c38 -24 76 -87 76 -123 0 -40 -34 -101 -70 -124
-66 -42 -164 -22 -206 42 -23 35 -22 123 2 160 41 63 138 85 198 45z m554
-1230 c226 -453 412 -829 412 -836 0 -7 6 -19 13 -26 10 -10 49 -87 49 -95 0
-1 56 -113 124 -249 68 -135 124 -248 124 -250 0 -2 -76 -4 -168 -4 l-168 0
-17 30 c-10 17 -15 30 -12 30 4 0 -2 12 -13 28 -11 15 -30 50 -44 77 -24 49
-69 134 -140 265 -19 36 -56 106 -83 155 -94 176 -118 221 -142 263 -14 23
-22 42 -18 42 3 0 -8 20 -25 45 -17 25 -33 54 -35 65 -2 11 -13 33 -23 48 -11
15 -29 47 -40 72 -12 25 -36 72 -55 105 -18 33 -56 103 -84 155 -82 154 -134
251 -171 320 -18 36 -44 81 -55 100 -12 19 -20 35 -19 35 2 0 0 8 -3 18 -4 9
-4 29 0 45 4 15 6 28 6 30 -1 1 15 34 34 72 19 39 33 70 30 70 -3 0 11 31 30
70 19 38 34 71 34 72 -6 9 27 78 36 75 5 -2 196 -374 423 -827z"/>
<path d="M4866 5307 c-15 -11 -17 -47 -17 -414 0 -221 2 -407 6 -413 9 -15
427 -14 443 2 8 8 12 60 12 170 l0 158 423 0 c479 0 564 -8 635 -55 131 -87
164 -352 59 -472 -60 -69 -23 -66 -833 -64 -664 2 -733 1 -748 -14 -14 -15
-16 -82 -16 -713 0 -383 4 -703 8 -710 7 -9 61 -12 238 -10 l229 3 3 468 2
467 315 0 315 0 46 -72 c26 -40 50 -75 53 -78 4 -3 29 -40 55 -84 26 -43 54
-85 62 -93 8 -8 24 -31 35 -52 18 -32 39 -66 90 -142 9 -13 35 -55 60 -94 24
-38 46 -72 50 -75 3 -3 28 -41 56 -85 27 -44 62 -99 79 -122 l29 -42 227 -1
c213 0 228 1 237 19 8 14 5 27 -12 52 -12 19 -57 97 -99 174 -41 77 -111 203
-153 280 -43 77 -92 166 -109 197 -17 32 -57 105 -88 163 -32 59 -58 110 -58
115 0 5 24 19 53 33 72 33 204 134 251 191 72 89 116 151 136 191 54 112 71
438 31 618 -41 191 -142 335 -290 412 -41 22 -79 40 -85 41 -6 1 -42 11 -81
23 -116 35 -221 39 -941 40 -537 1 -694 -2 -708 -12z m1564 -88 c25 -6 59 -12
77 -15 65 -8 186 -75 248 -138 67 -68 97 -121 141 -251 21 -62 26 -382 8 -490
-13 -73 -31 -125 -46 -125 -4 0 -8 -7 -8 -17 0 -9 -7 -23 -15 -32 -8 -9 -35
-41 -59 -71 -41 -52 -101 -110 -160 -155 -15 -11 -68 -39 -119 -61 -55 -25
-93 -48 -95 -58 -4 -18 40 -109 67 -140 9 -10 15 -21 15 -25 -2 -6 23 -57 55
-113 21 -36 148 -265 187 -337 16 -31 38 -68 48 -83 10 -16 15 -28 11 -28 -5
0 -1 -8 7 -17 9 -10 28 -43 44 -73 15 -30 38 -71 51 -90 40 -60 39 -60 -131
-60 l-154 0 -28 36 c-16 20 -29 39 -29 42 -1 4 -22 39 -48 77 -69 102 -70 104
-118 180 -24 39 -46 72 -49 75 -3 3 -28 41 -55 85 -27 44 -53 82 -57 83 -4 2
-8 9 -8 15 0 7 -11 25 -25 40 -14 15 -23 27 -19 27 3 0 -10 23 -30 50 -20 28
-36 54 -36 59 0 5 -4 11 -8 13 -4 2 -25 31 -46 66 -61 101 -21 92 -424 92
-281 -1 -361 -3 -374 -14 -17 -12 -18 -47 -18 -470 l0 -456 -165 0 -165 0 0
651 1 650 717 -1 c704 -2 718 -2 765 19 26 11 47 25 47 30 0 6 6 8 13 6 11 -4
59 53 86 102 36 70 35 296 -3 387 -15 37 -120 148 -146 155 -8 2 -40 13 -70
25 -53 20 -77 21 -551 24 -447 3 -498 1 -513 -13 -13 -14 -16 -42 -16 -176 l0
-159 -154 0 c-131 0 -155 2 -160 16 -8 21 -8 603 0 643 l7 31 731 0 c472 0
747 -4 776 -11z"/>
<path d="M7690 5300 c-20 -20 -20 -26 -20 -1262 0 -684 4 -1248 8 -1255 6 -9
66 -13 225 -13 119 -1 221 1 227 5 7 4 10 415 10 1260 0 1099 -2 1255 -15
1269 -12 12 -52 15 -215 16 -188 1 -200 0 -220 -20z m370 -1260 l0 -1200 -155
0 -155 0 0 1193 c0 657 3 1197 7 1200 3 4 73 7 155 7 l148 0 0 -1200z"/>
<path d="M1059 2323 c-45 -76 -89 -148 -97 -160 -14 -22 -13 -23 16 -23 27 0
35 9 98 120 38 66 72 120 76 120 6 0 68 -104 68 -115 0 -3 -22 -5 -49 -5 -45
0 -61 -10 -61 -36 0 -2 31 -4 70 -4 l70 0 25 -40 c19 -30 32 -40 51 -40 20 0
25 4 20 17 -18 46 -180 303 -192 303 -7 0 -50 -62 -95 -137z"/>
<path d="M1400 2300 l0 -161 138 3 c134 3 137 4 140 26 3 22 2 22 -112 22
l-116 0 0 110 0 110 115 0 115 0 0 25 0 25 -140 0 -140 0 0 -160z"/>
<path d="M1730 2300 l0 -160 25 0 25 0 0 135 0 135 93 0 c114 0 137 -12 137
-70 0 -55 -25 -70 -117 -70 -66 0 -73 -2 -73 -20 0 -18 7 -20 58 -20 55 0 60
-2 102 -45 36 -36 51 -45 79 -45 l36 0 -47 46 -46 47 25 21 c31 27 42 100 23
147 -20 47 -59 59 -200 59 l-120 0 0 -160z"/>
<path d="M2132 2303 c3 -155 3 -158 26 -161 l22 -3 0 160 0 161 -25 0 -26 0 3
-157z"/>
<path d="M2397 2438 c-8 -13 -43 -70 -77 -128 -35 -58 -72 -120 -82 -137 l-20
-33 29 0 c26 0 35 11 98 120 39 66 73 120 76 120 5 0 54 -82 67 -112 2 -5 -18
-8 -45 -8 -37 0 -51 -4 -61 -20 -12 -19 -10 -20 62 -20 l73 0 27 -40 c19 -30
33 -40 52 -40 33 0 34 -1 -68 169 -98 164 -105 171 -131 129z"/>
<path d="M2670 2300 l0 -160 130 0 130 0 0 25 0 25 -105 0 -105 0 0 135 0 135
-25 0 -25 0 0 -160z"/>
<path d="M3100 2300 l0 -160 25 0 25 0 0 135 0 135 98 0 c110 0 128 -8 138
-57 5 -26 1 -37 -19 -57 -23 -23 -34 -26 -97 -26 -63 0 -70 -2 -70 -20 0 -18
7 -20 58 -20 56 0 59 -1 95 -45 32 -38 43 -45 75 -45 l36 0 -48 49 c-36 37
-44 50 -32 54 26 10 48 55 48 101 0 96 -37 116 -212 116 l-120 0 0 -160z"/>
<path d="M3562 2440 c-33 -15 -47 -29 -62 -62 -23 -50 -24 -76 -8 -130 24 -82
109 -119 230 -103 108 15 164 120 122 224 -15 36 -28 51 -64 69 -58 29 -156
30 -218 2z m220 -69 c27 -30 30 -39 25 -79 -3 -30 -13 -53 -31 -71 -24 -24
-33 -26 -106 -26 -74 0 -82 2 -107 28 -23 22 -28 36 -28 76 0 83 40 112 149
108 63 -3 71 -5 98 -36z"/>
<path d="M3910 2301 l0 -161 113 0 c146 0 184 11 203 56 16 38 11 68 -14 97
-15 17 -15 19 1 28 26 15 23 90 -4 115 -18 16 -40 19 -160 22 l-139 4 0 -161z
m251 99 c21 -12 25 -50 7 -68 -7 -7 -43 -12 -90 -12 -71 0 -78 -2 -78 -20 0
-18 7 -20 78 -20 84 0 117 -13 110 -45 -6 -33 -46 -45 -143 -43 l-90 3 -3 94
c-1 52 -1 100 2 108 7 16 177 19 207 3z"/>
<path d="M4375 2447 c-17 -8 -43 -29 -58 -46 -23 -28 -27 -42 -27 -94 0 -73
22 -117 72 -144 47 -25 181 -25 225 1 91 55 97 206 11 270 -36 25 -177 34
-223 13z m184 -51 c57 -30 69 -116 22 -168 -26 -29 -35 -33 -97 -36 -87 -4
-127 17 -145 77 -10 34 -9 44 7 77 11 22 30 44 44 51 34 17 135 16 169 -1z"/>
<path d="M4680 2435 c0 -24 3 -25 60 -25 l60 0 0 -135 0 -135 25 0 25 0 0 135
0 135 60 0 c57 0 60 1 60 25 l0 25 -145 0 -145 0 0 -25z"/>
<path d="M5055 2448 c-11 -6 -26 -18 -32 -26 -19 -24 -16 -86 6 -113 18 -22
29 -24 131 -29 102 -5 114 -7 127 -27 13 -19 12 -24 -6 -42 -19 -19 -33 -21
-146 -21 l-125 0 0 -26 0 -26 141 4 c140 3 141 3 165 31 32 38 32 90 -1 122
-22 23 -31 25 -128 25 -108 0 -127 7 -127 45 0 40 18 45 147 45 l123 0 0 25 0
25 -127 0 c-73 0 -137 -5 -148 -12z"/>
<path d="M5564 2446 c-17 -8 -34 -21 -38 -31 -11 -29 -7 -73 9 -89 8 -8 15
-17 15 -21 0 -4 -7 -13 -15 -21 -23 -24 -19 -79 9 -111 23 -27 28 -28 140 -31
l116 -4 0 26 c0 21 -5 26 -25 26 -23 0 -25 4 -25 45 0 33 4 45 15 45 8 0 15 9
15 20 0 19 -7 20 -93 20 -99 0 -117 7 -117 47 0 27 27 43 74 43 32 0 36 3 36
25 0 23 -4 25 -42 25 -24 -1 -57 -7 -74 -14z m136 -211 l0 -45 -46 0 c-57 0
-84 14 -84 43 0 35 19 47 77 47 l53 0 0 -45z"/>
<path d="M5982 2303 c3 -155 3 -158 26 -161 l22 -3 0 160 0 161 -25 0 -26 0 3
-157z"/>
<path d="M6097 2453 c-4 -3 -7 -76 -7 -160 0 -154 0 -154 23 -151 21 3 22 8
27 116 l5 112 115 -115 c63 -63 123 -115 132 -115 16 0 18 14 18 160 0 153 -1
160 -20 160 -19 0 -20 -7 -20 -115 0 -63 -3 -115 -8 -115 -4 0 -59 52 -122
115 -109 109 -128 124 -143 108z"/>
<path d="M6450 2435 c0 -24 3 -25 60 -25 l60 0 0 -135 0 -135 25 0 25 0 0 135
0 135 60 0 c57 0 60 1 60 25 l0 25 -145 0 -145 0 0 -25z"/>
<path d="M6780 2300 l0 -161 137 3 c133 3 136 3 138 26 2 22 0 22 -112 22
l-113 0 0 110 0 110 113 0 112 0 0 25 0 25 -137 0 -138 0 0 -160z"/>
<path d="M7110 2300 l0 -161 23 3 c21 3 22 7 25 136 l3 132 92 0 c114 0 137
-12 137 -70 0 -55 -25 -70 -117 -70 -66 0 -73 -2 -73 -20 0 -18 7 -20 58 -20
55 0 60 -2 102 -45 31 -32 52 -45 72 -45 38 0 35 11 -13 55 -41 37 -42 38 -22
54 53 41 59 123 14 173 l-29 33 -136 3 -136 4 0 -162z"/>
<path d="M7670 2445 c-15 -18 -180 -295 -180 -302 0 -2 12 -3 27 -1 23 3 38
21 96 118 37 63 71 116 75 117 4 2 22 -24 40 -57 l33 -60 -50 0 c-40 0 -52 -4
-61 -20 -10 -19 -8 -20 64 -20 l75 0 22 -40 c18 -32 28 -40 51 -40 15 0 28 3
27 8 -1 15 -185 306 -195 309 -6 2 -17 -3 -24 -12z"/>
<path d="M7965 2446 c-56 -25 -79 -60 -83 -129 -2 -47 1 -70 16 -97 32 -58 72
-74 189 -78 l103 -4 0 26 0 26 -87 0 c-110 0 -152 18 -170 72 -17 52 -1 103
40 128 26 16 51 20 125 20 91 0 92 0 92 25 0 25 0 25 -97 25 -59 -1 -110 -6
-128 -14z"/>
<path d="M8230 2435 c0 -24 3 -25 60 -25 l60 0 0 -135 0 -135 25 0 25 0 0 135
0 135 60 0 c57 0 60 1 60 25 l0 25 -145 0 -145 0 0 -25z"/>
<path d="M8570 2300 c0 -153 1 -160 20 -160 19 0 20 7 20 160 0 153 -1 160
-20 160 -19 0 -20 -7 -20 -160z"/>
<path d="M8742 2440 c-33 -15 -47 -29 -62 -62 -23 -50 -24 -76 -8 -130 24 -81
109 -119 229 -103 93 13 150 92 135 189 -9 53 -38 91 -86 110 -56 22 -154 20
-208 -4z m220 -69 c27 -30 30 -39 25 -79 -3 -30 -13 -53 -31 -71 -24 -24 -33
-26 -106 -26 -74 0 -82 2 -107 28 -23 22 -28 36 -28 76 0 83 40 112 149 108
63 -3 71 -5 98 -36z"/>
<path d="M9097 2453 c-4 -3 -7 -75 -7 -160 0 -146 1 -153 20 -153 19 0 20 7
20 117 l0 118 119 -119 c83 -83 124 -117 137 -114 18 3 19 16 22 161 l3 157
-25 0 -25 0 -3 -115 -3 -116 -122 116 c-67 63 -123 115 -125 115 -3 0 -8 -3
-11 -7z"/>
<path d="M1500 2300 c0 -18 7 -20 80 -20 73 0 80 2 80 20 0 18 -7 20 -80 20
-73 0 -80 -2 -80 -20z"/>
<path d="M6877 2300 c5 -18 14 -20 84 -20 72 0 79 2 79 20 0 18 -7 20 -84 20
-79 0 -84 -1 -79 -20z"/>
</g>
</svg>
